<?xml version="1.0" standalone="no"?><!DOCTYPE svg PUBLIC "-//W3C//DTD SVG 1.1//EN" "http://www.w3.org/Graphics/SVG/1.1/DTD/svg11.dtd"><svg t="1625455987057" class="icon" viewBox="0 0 1024 1024" version="1.1" xmlns="http://www.w3.org/2000/svg" p-id="2843" xmlns:xlink="http://www.w3.org/1999/xlink" width="200" height="200"><defs><style type="text/css"></style></defs><path d="M799.7 710.9H327c-14.5 0-26.9-10.4-29.5-24.6l-94.1-510.6h-88.2c-16.6 0-30-13.4-30-30s13.4-30 30-30h113.2c14.5 0 26.9 10.4 29.5 24.6L352 650.9h447.7c16.6 0 30 13.4 30 30s-13.4 30-30 30z" fill="#2854FD" p-id="2844"></path><path d="M668.5 565.2H303.8l-58.9-338.9h595.9c15.2 0 26.3 14.5 22.2 29.2l-57 205.3c-17.2 61.7-73.4 104.4-137.5 104.4z" fill="#7EC6FF" p-id="2845"></path><path d="M668.5 595.3h-390l-69.3-399h631.6c16.7 0 32.1 7.6 42.2 21 10.1 13.3 13.4 30.2 8.9 46.3l-57.1 205.3c-20.6 74.4-89 126.4-166.3 126.4z m-339.4-60.1h339.5c50.4 0 95-33.9 108.5-82.4l54.6-196.4h-551l48.4 278.8z" fill="#2854FD" p-id="2846"></path><path d="M391.8 822m-54.9 0a54.9 54.9 0 1 0 109.8 0 54.9 54.9 0 1 0-109.8 0Z" fill="#FFFFFF" p-id="2847"></path><path d="M391.8 907c-46.8 0-84.9-38.1-84.9-85 0-46.8 38.1-84.9 84.9-84.9s84.9 38.1 84.9 84.9c0.1 46.9-38 85-84.9 85z m0-109.8c-13.7 0-24.9 11.1-24.9 24.9 0 13.7 11.2 24.9 24.9 24.9s24.9-11.2 24.9-24.9c0-13.8-11.2-24.9-24.9-24.9z" fill="#2854FD" p-id="2848"></path><path d="M697.8 822m-54.9 0a54.9 54.9 0 1 0 109.8 0 54.9 54.9 0 1 0-109.8 0Z" fill="#FFFFFF" p-id="2849"></path><path d="M697.8 907c-46.8 0-84.9-38.1-84.9-85 0-46.8 38.1-84.9 84.9-84.9s84.9 38.1 84.9 84.9c0 46.9-38.1 85-84.9 85z m0-109.8c-13.7 0-24.9 11.1-24.9 24.9 0 13.7 11.2 24.9 24.9 24.9s24.9-11.2 24.9-24.9c0-13.8-11.2-24.9-24.9-24.9z" fill="#2854FD" p-id="2850"></path><path d="M833.7 373.3H683.2c-13.3 0-24-10.8-24-24 0-13.3 10.8-24 24-24h150.5c13.3 0 24 10.8 24 24 0.1 13.3-10.7 24-24 24z" fill="#2854FD" p-id="2851"></path><path d="M778.2 490.6H603.7c-13.3 0-24-10.8-24-24s10.8-24 24-24h174.6c13.3 0 24 10.8 24 24s-10.8 24-24.1 24z" fill="#2854FD" p-id="2852"></path></svg>