<?xml version="1.0" standalone="no"?><!DOCTYPE svg PUBLIC "-//W3C//DTD SVG 1.1//EN" "http://www.w3.org/Graphics/SVG/1.1/DTD/svg11.dtd"><svg t="1625463533519" class="icon" viewBox="0 0 1024 1024" version="1.1" xmlns="http://www.w3.org/2000/svg" p-id="5471" xmlns:xlink="http://www.w3.org/1999/xlink" width="200" height="200"><defs><style type="text/css"></style></defs><path d="M638.8 657.5H787c13.6 0 24.9-11.3 24.9-26s-11.3-26-24.9-26H638.8c-13.6 0-24.9 11.3-24.9 26s11.4 26 24.9 26z m0-129H787c13.6 0 24.9-11.3 24.9-26s-11.3-26-26-26H638.8c-13.6 0-24.9 11.3-24.9 26s11.4 26 24.9 26z m0-128.9H787c13.6 0 24.9-11.3 24.9-26 0-13.6-11.3-26-24.9-26H638.8c-13.6 0-24.9 11.3-24.9 26 0 13.5 11.4 26 24.9 26zM256.5 528.5h148.2c13.6 0 24.9-11.3 24.9-26s-11.3-26-24.9-26H256.5c-13.6 0-24.9 11.3-24.9 26s10.2 26 24.9 26z m0 129h148.2c13.6 0 24.9-11.3 24.9-26s-11.3-26-24.9-26H256.5c-13.6 0-24.9 11.3-24.9 26s10.2 26 24.9 26z m0-257.9h148.2c13.6 0 24.9-11.3 24.9-26 0-13.6-11.3-26-24.9-26H256.5c-13.6 0-24.9 11.3-24.9 26 0 13.5 10.2 26 24.9 26z m0 0" p-id="5472"></path><path d="M860.5 130.4h-190c-61.1 0-117.6 32.8-149.3 86-31.7-53.2-88.2-86-149.3-86h-190c-37.3 0-67.9 31.7-67.9 70.1v582.6c0 38.5 30.5 70.1 67.9 70.1h200.2c35.1 0 61.1 17 83.7 32.8 18.1 12.4 36.2 23.8 54.3 23.8 18.1 0 36.2-11.3 54.3-23.8 22.6-15.8 49.8-32.8 83.7-32.8h201.3c37.3 0 67.9-31.7 67.9-70.1V200.5c1.1-38.5-29.4-70.1-66.8-70.1z m-190 50.9h179.9c15.8 0 28.3 13.6 28.3 29.4v561.1c0 17-12.4 29.4-28.3 29.4h-190c-57.7 0-99.5 28.3-114.2 39.6V311.4c-0.1-71.3 55.3-130.1 124.3-130.1z m-506.8 30.5c0-17 12.4-29.4 28.3-29.4h179.9c69 0 124.4 57.7 124.4 130.1v529.4c-14.7-11.3-56.6-39.6-114.2-39.6H192c-15.8 0-28.3-13.6-28.3-29.4V211.8z m0 0" p-id="5473"></path></svg>